<svg width="231" height="186" viewBox="0 0 231 186" fill="none" xmlns="http://www.w3.org/2000/svg">
<path d="M157.546 137.123L183.625 151.699L180.698 156.937L154.619 142.36L157.546 137.123Z" fill="#C67181"/>
<path d="M170.545 117.389L230.752 151.04L227.824 156.277L167.618 122.626L170.545 117.389Z" fill="#C67181"/>
<path d="M170.545 131.389L206.649 151.568L203.721 156.805L167.618 136.626L170.545 131.389Z" fill="#696A6C"/>
<path d="M0 55.44H20.864C28.1173 55.44 33.408 57.1467 36.736 60.56C40.064 63.888 41.728 69.0507 41.728 76.048V81.552C41.728 90.8533 38.656 96.7413 32.512 99.216V99.472C35.9253 100.496 38.3147 102.587 39.68 105.744C41.1307 108.901 41.856 113.125 41.856 118.416V134.16C41.856 136.72 41.9413 138.811 42.112 140.432C42.2827 141.968 42.7093 143.504 43.392 145.04H29.056C28.544 143.589 28.2027 142.224 28.032 140.944C27.8613 139.664 27.776 137.36 27.776 134.032V117.648C27.776 113.552 27.0933 110.693 25.728 109.072C24.448 107.451 22.1867 106.64 18.944 106.64H14.08V145.04H0V55.44ZM19.2 93.84C22.016 93.84 24.1067 93.1147 25.472 91.664C26.9227 90.2133 27.648 87.7813 27.648 84.368V77.456C27.648 74.2133 27.0507 71.8667 25.856 70.416C24.7467 68.9653 22.9547 68.24 20.48 68.24H14.08V93.84H19.2Z" fill="#C41E3D"/>
<path d="M51.625 55.44H65.705V145.04H51.625V55.44Z" fill="#C41E3D"/>
<path d="M76.25 55.44H93.914L107.61 109.072H107.866V55.44H120.41V145.04H105.946L89.05 79.632H88.794V145.04H76.25V55.44Z" fill="#C41E3D"/>
<path d="M150.843 146.32C144.016 146.32 138.811 144.4 135.227 140.56C131.643 136.635 129.851 131.045 129.851 123.792V76.688C129.851 69.4347 131.643 63.888 135.227 60.048C138.811 56.1227 144.016 54.16 150.843 54.16C157.67 54.16 162.875 56.1227 166.459 60.048C170.043 63.888 171.835 69.4347 171.835 76.688V84.368H158.523V75.792C158.523 69.904 156.091 66.96 151.227 66.96C146.363 66.96 143.931 69.904 143.931 75.792V124.816C143.931 130.619 146.363 133.52 151.227 133.52C156.091 133.52 158.523 130.619 158.523 124.816V107.28H151.483V94.48H171.835V123.792C171.835 131.045 170.043 136.635 166.459 140.56C162.875 144.4 157.67 146.32 150.843 146.32Z" fill="#C41E3D"/>
<path d="M76.4231 151.04L230.752 151.04L230.752 157.04H76.4231V151.04Z" fill="#C41E3D"/>
<path d="M76.4231 165.04H230.752V171.04H76.4231V165.04Z" fill="#3A445D"/>
<path d="M76.4231 178.04H230.752V185.04H76.4231V178.04Z" fill="#C41E3D"/>
<path d="M50.752 55.04H65.752V185.04H50.752V55.04Z" fill="#3A445D"/>
<path d="M0.312 47.04V0H16.12V7.104H7.224V19.776H13.624V26.688H7.224V39.936H16.12V47.04H0.312Z" fill="#C41E3D"/>
<path d="M21.2495 47.04V0H28.1615V40.64H37.3135V47.04H21.2495Z" fill="#C41E3D"/>
</svg>
