<svg width="231" height="189" viewBox="0 0 231 189" fill="none" xmlns="http://www.w3.org/2000/svg">
<path d="M157.546 140.123L183.625 154.699L180.698 159.937L154.619 145.36L157.546 140.123Z" fill="white"/>
<path d="M170.545 120.389L230.752 154.04L227.824 159.277L167.618 125.626L170.545 120.389Z" fill="white"/>
<path d="M170.545 134.389L206.649 154.568L203.721 159.805L167.618 139.626L170.545 134.389Z" fill="white"/>
<path d="M0 58.44H20.864C28.1173 58.44 33.408 60.1467 36.736 63.56C40.064 66.888 41.728 72.0507 41.728 79.048V84.552C41.728 93.8533 38.656 99.7413 32.512 102.216V102.472C35.9253 103.496 38.3147 105.587 39.68 108.744C41.1307 111.901 41.856 116.125 41.856 121.416V137.16C41.856 139.72 41.9413 141.811 42.112 143.432C42.2827 144.968 42.7093 146.504 43.392 148.04H29.056C28.544 146.589 28.2027 145.224 28.032 143.944C27.8613 142.664 27.776 140.36 27.776 137.032V120.648C27.776 116.552 27.0933 113.693 25.728 112.072C24.448 110.451 22.1867 109.64 18.944 109.64H14.08V148.04H0V58.44ZM19.2 96.84C22.016 96.84 24.1067 96.1147 25.472 94.664C26.9227 93.2133 27.648 90.7813 27.648 87.368V80.456C27.648 77.2133 27.0507 74.8667 25.856 73.416C24.7467 71.9653 22.9547 71.24 20.48 71.24H14.08V96.84H19.2Z" fill="white"/>
<path d="M51.625 58.44H65.705V148.04H51.625V58.44Z" fill="white"/>
<path d="M76.25 58.44H93.914L107.61 112.072H107.866V58.44H120.41V148.04H105.946L89.05 82.632H88.794V148.04H76.25V58.44Z" fill="white"/>
<path d="M150.843 149.32C144.016 149.32 138.811 147.4 135.227 143.56C131.643 139.635 129.851 134.045 129.851 126.792V79.688C129.851 72.4347 131.643 66.888 135.227 63.048C138.811 59.1227 144.016 57.16 150.843 57.16C157.67 57.16 162.875 59.1227 166.459 63.048C170.043 66.888 171.835 72.4347 171.835 79.688V87.368H158.523V78.792C158.523 72.904 156.091 69.96 151.227 69.96C146.363 69.96 143.931 72.904 143.931 78.792V127.816C143.931 133.619 146.363 136.52 151.227 136.52C156.091 136.52 158.523 133.619 158.523 127.816V110.28H151.483V97.48H171.835V126.792C171.835 134.045 170.043 139.635 166.459 143.56C162.875 147.4 157.67 149.32 150.843 149.32Z" fill="white"/>
<path d="M1.312 47.04V0H17.12V7.104H8.224V19.776H14.624V26.688H8.224V39.936H17.12V47.04H1.312Z" fill="white"/>
<path d="M22.2495 47.04V0H29.1615V40.64H38.3135V47.04H22.2495Z" fill="white"/>
<path d="M76.4231 154.04L230.752 154.04L230.752 160.04H76.4231V154.04Z" fill="white"/>
<path d="M76.4231 168.04H230.752V174.04H76.4231V168.04Z" fill="white"/>
<path d="M76.4231 181.04H230.752V188.04H76.4231V181.04Z" fill="white"/>
<path d="M50.752 58.04H65.752V188.04H50.752V58.04Z" fill="white"/>
</svg>
