<svg width="233" height="167" viewBox="0 0 233 167" fill="none" xmlns="http://www.w3.org/2000/svg">
<path d="M159.394 118.483L185.473 133.059L182.546 138.297L156.467 123.72L159.394 118.483Z" fill="#C67181"/>
<path d="M172.393 98.7486L232.6 132.4L229.672 137.637L169.466 103.986L172.393 98.7486Z" fill="#C67181"/>
<path d="M172.393 112.749L208.497 132.928L205.569 138.165L169.466 117.986L172.393 112.749Z" fill="#696A6C"/>
<path d="M1.848 36.8H22.712C29.9653 36.8 35.256 38.5067 38.584 41.92C41.912 45.248 43.576 50.4107 43.576 57.408V62.912C43.576 72.2133 40.504 78.1013 34.36 80.576V80.832C37.7733 81.856 40.1627 83.9467 41.528 87.104C42.9787 90.2613 43.704 94.4853 43.704 99.776V115.52C43.704 118.08 43.7893 120.171 43.96 121.792C44.1307 123.328 44.5573 124.864 45.24 126.4H30.904C30.392 124.949 30.0507 123.584 29.88 122.304C29.7093 121.024 29.624 118.72 29.624 115.392V99.008C29.624 94.912 28.9413 92.0533 27.576 90.432C26.296 88.8107 24.0347 88 20.792 88H15.928V126.4H1.848V36.8ZM21.048 75.2C23.864 75.2 25.9547 74.4747 27.32 73.024C28.7707 71.5733 29.496 69.1413 29.496 65.728V58.816C29.496 55.5733 28.8987 53.2267 27.704 51.776C26.5947 50.3253 24.8027 49.6 22.328 49.6H15.928V75.2H21.048Z" fill="#C41E3D"/>
<path d="M53.473 36.8H67.553V126.4H53.473V36.8Z" fill="#C41E3D"/>
<path d="M78.098 36.8H95.762L109.458 90.432H109.714V36.8H122.258V126.4H107.794L90.898 60.992H90.642V126.4H78.098V36.8Z" fill="#C41E3D"/>
<path d="M152.691 127.68C145.864 127.68 140.659 125.76 137.075 121.92C133.491 117.995 131.699 112.405 131.699 105.152V58.048C131.699 50.7947 133.491 45.248 137.075 41.408C140.659 37.4827 145.864 35.52 152.691 35.52C159.518 35.52 164.723 37.4827 168.307 41.408C171.891 45.248 173.683 50.7947 173.683 58.048V65.728H160.371V57.152C160.371 51.264 157.939 48.32 153.075 48.32C148.211 48.32 145.779 51.264 145.779 57.152V106.176C145.779 111.979 148.211 114.88 153.075 114.88C157.939 114.88 160.371 111.979 160.371 106.176V88.64H153.331V75.84H173.683V105.152C173.683 112.405 171.891 117.995 168.307 121.92C164.723 125.76 159.518 127.68 152.691 127.68Z" fill="#C41E3D"/>
<path d="M4.08 29.4V4.44H0V0H12.48V4.44H8.4V29.4H4.08Z" fill="#C41E3D"/>
<path d="M14.4812 29.4V0H18.8013V12.16H22.1613V0H26.4813V29.4H22.1613V16.6H18.8013V29.4H14.4812Z" fill="#C41E3D"/>
<path d="M29.6766 29.4V0H39.5566V4.44H33.9966V12.36H37.9966V16.68H33.9966V24.96H39.5566V29.4H29.6766Z" fill="#C41E3D"/>
<path d="M78.2711 132.4L232.6 132.4L232.6 138.4H78.2711V132.4Z" fill="#C41E3D"/>
<path d="M78.2711 146.4H232.6V152.4H78.2711V146.4Z" fill="#3A445D"/>
<path d="M78.2711 159.4H232.6V166.4H78.2711V159.4Z" fill="#C41E3D"/>
<path d="M52.6 36.4H67.6V166.4H52.6V36.4Z" fill="#3A445D"/>
</svg>
